Coordinates
version=1
nRows=9
nColumns=24
inDegrees=yes

Units are S.I. units (second, meters, Newtons, ...)
Angles are in degrees.

endheader
time	pelvis_tilt	pelvis_list	pelvis_rotation	pelvis_tx	pelvis_ty	pelvis_tz	hip_flexion_r	hip_adduction_r	hip_rotation_r	knee_angle_r	ankle_angle_r	subtalar_angle_r	mtp_angle_r	hip_flexion_l	hip_adduction_l	hip_rotation_l	knee_angle_l	ankle_angle_l	subtalar_angle_l	mtp_angle_l	lumbar_extension	lumbar_bending	lumbar_rotation
      0.90883333	     -3.25338066	     -0.98714565	     -4.00606062	     -0.17177147	      0.89202452	      0.34982948	    -11.01039920	      5.80319640	      3.96918325	     -9.79947098	     18.86027413	      5.89225176	      4.77508548	     32.26479247	     -1.65560327	     -7.76065158	    -20.12361221	      3.91848081	     -3.07061330	      1.65399620	     -5.33691622	      1.78246395	      9.48215542
      0.91300000	     -3.36655629	     -0.99025617	     -4.12659038	     -0.16592893	      0.89063570	      0.34983303	    -10.99175635	      5.75024353	      3.92321995	    -10.46109168	     19.16460128	      6.25547624	      4.95268325	     32.30727728	     -1.63677168	     -7.76853549	    -19.89862061	      3.99046540	     -3.01047942	      1.63944179	     -5.16037180	      1.73853588	      9.58313078
      0.91716667	     -3.47601055	     -0.97967295	     -4.23983510	     -0.16005820	      0.88929476	      0.34982511	    -10.94992756	      5.68312641	      3.87147686	    -11.17950542	     19.44316907	      6.58731310	      5.15353375	     32.34053352	     -1.60182158	     -7.77613059	    -19.77057818	      4.04197907	     -3.00301462	      1.63452042	     -4.97830226	      1.68229042	      9.65435230
      0.92133333	     -3.58584366	     -0.96278664	     -4.34180833	     -0.15416440	      0.88799744	      0.34978897	    -10.87720256	      5.60814927	      3.78210099	    -11.95947700	     19.67700595	      6.92553656	      5.38775172	     32.37346958	     -1.55645738	     -7.78667850	    -19.73909994	      4.07010067	     -3.04472021	      1.64143409	     -4.79071905	      1.62586654	      9.70973866
      0.92550000	     -3.69512657	     -0.93643714	     -4.43350305	     -0.14825946	      0.88675358	      0.34973890	    -10.77415246	      5.52268170	      3.67804299	    -12.80014588	     19.87776330	      7.29690388	      5.70076581	     32.40018260	     -1.49509441	     -7.77643262	    -19.78825785	      4.06894624	     -3.14357343	      1.66452013	     -4.61100570	      1.54627720	      9.75605890
      0.92966667	     -3.81774490	     -0.90817357	     -4.52762951	     -0.14233502	      0.88555052	      0.34970082	    -10.62584662	      5.43673599	      3.59368064	    -13.70496549	     20.04447326	      7.62776088	      6.00593186	     32.43549413	     -1.43924235	     -7.78346747	    -19.91458547	      4.03368485	     -3.26936359	      1.69904514	     -4.39793291	      1.46428987	      9.76864035
      0.93383333	     -3.91783018	     -0.86106099	     -4.59460351	     -0.13637848	      0.88442444	      0.34960644	    -10.47224392	      5.32504879	      3.43330342	    -14.66418639	     20.17308843	      8.03946197	      6.48583895	     32.45385036	     -1.34791615	     -7.77414437	    -20.13658249	      3.98444954	     -3.49780010	      1.76861367	     -4.22550129	      1.33257213	      9.78117760
      0.93800000	     -4.03058830	     -0.79771644	     -4.68139788	     -0.13039627	      0.88339567	      0.34954141	    -10.27588124	      5.19587428	      3.34298063	    -15.66455377	     20.08938621	      8.28644089	      9.76681728	     32.44162370	     -1.24421672	     -7.74837510	    -20.33589169	      3.83264800	     -3.80210928	      2.34533997	     -4.01460350	      1.20353783	      9.73992984
      0.94216667	     -4.15126801	     -0.77551711	     -4.74165969	     -0.12445559	      0.88235368	      0.34948081	    -10.03257768	      5.12386994	      3.26133599	    -16.75716891	     20.13356438	      8.55394177	      9.84167497	     32.50316012	     -1.19824328	     -7.77748211	    -20.74181098	      3.81192134	     -3.91208927	      2.36716946	     -3.82233989	      1.11028538	      9.68986449
